<svg xmlns="http://www.w3.org/2000/svg" width="408" height="408" viewBox="0 0 408 408" version="1.1"><path d="M 312.500 8.328 C 268.060 19.754, 258.801 56.615, 286.606 111.420 C 298.309 134.485, 304.562 148.747, 307.931 160.055 C 309.151 164.150, 310.540 168.625, 311.019 170 C 320.147 196.217, 323.109 254.224, 315.699 261.634 C 315.503 261.830, 313.253 258.730, 310.698 254.745 C 299.193 236.802, 280.381 219.175, 262.012 209.126 C 257.614 206.720, 242.016 199, 241.553 199 C 237.767 199, 200.292 173.098, 192.667 165.210 C 187.907 160.287, 188.747 159.977, 236.500 149.029 C 253.805 145.061, 261 142.912, 261 141.710 C 261 141.202, 260.393 141.019, 259.650 141.304 C 257.961 141.952, 229.327 148.977, 214.040 152.494 C 207.737 153.944, 200.103 156.001, 197.075 157.065 C 190.329 159.436, 189.837 159.449, 190.206 157.250 C 190.842 153.466, 201.044 149.539, 223.500 144.438 C 257.694 136.669, 267 134.166, 267 132.735 C 267 132.213, 266.393 132.019, 265.650 132.304 C 263.961 132.952, 235.327 139.977, 220.040 143.494 C 213.737 144.944, 206.103 147.001, 203.075 148.065 C 196.784 150.276, 196 150.381, 196 149.013 C 196 147.526, 202.350 143.914, 213.500 139.057 C 219 136.661, 230.700 131.458, 239.500 127.495 C 248.300 123.533, 257.525 119.467, 260 118.461 C 264.998 116.430, 267.113 115, 265.121 115 C 263.400 115, 252.413 119.416, 242 124.294 C 231.703 129.117, 208.280 139.475, 201.789 142.075 C 196.786 144.079, 196.095 143.091, 199.614 138.963 C 213.948 122.148, 208.408 91.975, 189.113 81.777 C 184.727 79.459, 184.727 79.459, 184.322 71.479 C 182.826 41.974, 168.128 14.444, 157.566 21.365 C 149.689 26.526, 138.570 48.115, 133.745 67.616 C 130.500 80.733, 130.500 80.733, 123.682 82.369 C 110.657 85.496, 98.067 94.188, 90.300 105.416 C 88.283 108.332, 88.283 108.332, 75.658 107.171 C 52.119 105.005, 18.402 112.564, 16.423 120.451 C 13.865 130.645, 34.781 148.074, 60.781 157.414 C 69.372 160.500, 69.372 160.500, 70.566 165.187 C 76.584 188.801, 102.443 200.737, 123.718 189.721 C 136.367 183.172, 131.609 189.562, 111.971 205.500 C 100.546 214.772, 79.386 232.514, 76.060 235.611 C 75.267 236.349, 74.910 237.244, 75.266 237.600 C 75.780 238.113, 94.002 223.433, 96 220.896 C 96.275 220.547, 99.875 217.542, 104 214.219 C 108.125 210.896, 115.721 204.762, 120.880 200.588 C 129.942 193.257, 132.845 191.984, 135.976 193.964 C 137.184 194.728, 136.799 195.497, 133.854 198.199 C 131.875 200.014, 126.711 205.327, 122.378 210.004 C 118.045 214.680, 108.200 225.181, 100.500 233.339 C 92.800 241.497, 86.350 248.583, 86.167 249.086 C 85.353 251.317, 88.062 249.655, 91.348 245.906 C 94.502 242.307, 113.479 222.192, 134.419 200.250 C 142.840 191.427, 148.373 189.738, 142.250 197.860 C 140.738 199.866, 139.050 202.252, 138.500 203.162 C 137.950 204.071, 128.950 217.527, 118.500 233.064 C 96.436 265.868, 97.621 264, 98.878 264 C 99.837 264, 102.002 260.890, 129.154 220.500 C 150.666 188.500, 147.348 192.094, 155.500 191.964 C 159.350 191.902, 165.650 191.723, 169.500 191.566 C 183.585 190.990, 203.209 210.729, 213.012 235.332 C 219.048 250.482, 235.929 321.003, 235.995 331.344 C 235.998 331.807, 232.021 328.615, 227.158 324.250 C 182.138 283.839, 163.310 318.413, 192.716 387.500 C 202.381 410.208, 192.801 408, 281.658 408 C 371.916 408, 361.695 409.496, 368.092 395.350 C 400.360 323.991, 382.919 279.755, 339.184 322.029 C 333.942 327.096, 333.489 326.852, 335.978 320.299 C 364.137 246.190, 352.317 161.653, 305.138 99.740 C 288.751 78.235, 283.453 58.054, 290.243 43 C 305.930 8.218, 364.502 18.078, 364.499 55.500 C 364.497 90.944, 319.998 99.196, 300.446 67.379 C 297.302 62.262, 297.111 65.548, 300.089 73.509 C 312.844 107.598, 365.902 102.102, 376.516 65.593 C 386.346 31.778, 349.497 -1.185, 312.500 8.328 M 169.120 96.097 C 161.218 98.500, 160.275 100.096, 165.260 102.630 C 174.233 107.189, 181.955 118.954, 182.015 128.154 C 182.062 135.321, 187.320 131.287, 190.643 121.533 C 196.254 105.068, 184.664 91.371, 169.120 96.097 M 154.770 108.750 C 147.932 124.084, 154.016 137.488, 167.818 137.496 C 181.767 137.504, 183.593 133.522, 173.185 125.794 C 167.970 121.921, 164.599 116.986, 163.004 110.891 C 161.936 106.807, 159.797 104, 157.753 104 C 157.277 104, 155.934 106.138, 154.770 108.750 M 104.027 143.750 C 104.041 144.162, 106.694 147.781, 109.922 151.790 C 113.150 155.800, 116.274 160.300, 116.864 161.790 C 117.454 163.281, 118.875 167.064, 120.021 170.198 C 122.489 176.947, 123.643 176.926, 127.872 170.054 C 135.659 157.398, 133.224 149.342, 120.200 144.675 C 115.504 142.991, 103.976 142.333, 104.027 143.750 M 98.468 146.006 C 93.581 147.854, 87.032 157.959, 87.006 163.693 C 86.995 165.920, 91.091 171.832, 94.385 174.345 C 103.835 181.552, 126.167 181.415, 117.097 174.205 C 105.147 164.707, 103.882 162.718, 101.299 149.369 C 100.600 145.754, 100.246 145.333, 98.468 146.006 M 154.892 156.478 C 150.083 158.701, 149.531 160.721, 151.401 169.250 C 152.365 173.650, 151.997 173.569, 159 170.911 C 165.527 168.434, 164.857 168.985, 165.942 165.204 C 167.604 159.406, 160.572 153.852, 154.892 156.478 M 169.731 177.693 C 164.379 179.088, 163.276 188, 168.455 188 C 174.516 188, 180.227 179.797, 175.435 177.975 C 172.753 176.956, 172.591 176.948, 169.731 177.693" stroke="none" fill="#040404" fill-rule="evenodd"/></svg>